<svg xmlns="http://www.w3.org/2000/svg" viewBox="0 0 480.56 496.34">
  <defs>
    <style>
      .cls-1 {
        fill: #34c752;
      }

      .cls-2 {
        fill: #58d472;
      }

      .cls-3 {
        fill: #fff;
      }
    </style>
  </defs>
  <g id="Слой_1_копия_" data-name="Слой 1 (копия)">
    <path class="cls-1" d="M354.39,24.94v57a24.84,24.84,0,0,1-4,13.61,186.6,186.6,0,0,0-188.73,0,24.84,24.84,0,0,1-4-13.61v-57a25,25,0,0,1,25-25H329.39A25,25,0,0,1,354.39,24.94Z" transform="translate(-15.72 0.06)"/>
    <path class="cls-1" d="M489,385.17,385.17,489a25,25,0,0,1-35.36,0l-25.06-25.07-12.66-12.66-2.58-2.58a24.65,24.65,0,0,1-6.77-12.47A186.61,186.61,0,0,0,436.18,302.73a24.83,24.83,0,0,1,12.48,6.77l2.57,2.57,12.67,12.67L489,349.81A25,25,0,0,1,489,385.17Z" transform="translate(-15.72 0.06)"/>
    <path class="cls-1" d="M209.27,436.18a24.83,24.83,0,0,1-6.77,12.48L187.26,463.9,162.19,489a25,25,0,0,1-35.36,0L23,385.17a25,25,0,0,1,0-35.36l25.07-25.06,15.24-15.24a24.65,24.65,0,0,1,12.47-6.77A186.61,186.61,0,0,0,209.27,436.18Z" transform="translate(-15.72 0.06)"/>
    <path class="cls-1" d="M457.7,170.78A219.83,219.83,0,0,0,354.39,60.39q-6.47-3.26-13.17-6.09a219.6,219.6,0,0,0-170.44,0q-6.72,2.84-13.18,6.09A219.21,219.21,0,0,0,48.11,324.75q2.74,8.33,6.19,16.47A219.7,219.7,0,0,0,170.78,457.7q8.15,3.45,16.48,6.2a220,220,0,0,0,137.49,0q8.33-2.75,16.47-6.19A219.7,219.7,0,0,0,457.7,341.22q3.45-8.14,6.2-16.48a219.82,219.82,0,0,0-6.2-154ZM312.09,451.23A202.86,202.86,0,1,1,451.23,312.07,203.48,203.48,0,0,1,312.09,451.23Z" transform="translate(-15.72 0.06)"/>
    <path class="cls-2" d="M354.39,78.33A203.37,203.37,0,1,0,459.07,256,202,202,0,0,0,354.39,78.33Zm33.18,309.24a184.79,184.79,0,0,1-84.83,48.61,188.36,188.36,0,0,1-93.47,0A186.61,186.61,0,0,1,75.82,302.74,187,187,0,0,1,69.93,256a184.82,184.82,0,0,1,54.5-131.57,187.25,187.25,0,0,1,37.2-28.88,186.6,186.6,0,0,1,188.73,0,186.94,186.94,0,0,1,37.21,28.88A184.82,184.82,0,0,1,442.07,256a186.91,186.91,0,0,1-5.89,46.73A184.82,184.82,0,0,1,387.57,387.57Z" transform="translate(-15.72 0.06)"/>
    <path class="cls-2" d="M284.72,169.87a4.39,4.39,0,1,0,4.41,4.39A4.39,4.39,0,0,0,284.72,169.87Zm0,0a4.39,4.39,0,1,0,4.41,4.39A4.39,4.39,0,0,0,284.72,169.87Zm0,0a4.39,4.39,0,1,0,4.41,4.39A4.39,4.39,0,0,0,284.72,169.87Zm0,0a4.39,4.39,0,1,0,4.41,4.39A4.39,4.39,0,0,0,284.72,169.87Zm0,0a4.39,4.39,0,1,0,4.41,4.39A4.39,4.39,0,0,0,284.72,169.87Zm0,0a4.39,4.39,0,1,0,4.41,4.39A4.39,4.39,0,0,0,284.72,169.87Zm0,0a4.39,4.39,0,1,0,4.41,4.39A4.39,4.39,0,0,0,284.72,169.87Zm0,0a4.39,4.39,0,1,0,4.41,4.39A4.39,4.39,0,0,0,284.72,169.87Zm0,0a4.39,4.39,0,1,0,4.41,4.39A4.39,4.39,0,0,0,284.72,169.87Zm0,0a4.39,4.39,0,1,0,4.41,4.39A4.39,4.39,0,0,0,284.72,169.87Zm0,0a4.39,4.39,0,1,0,4.41,4.39A4.39,4.39,0,0,0,284.72,169.87Zm0,0a4.39,4.39,0,1,0,4.41,4.39A4.39,4.39,0,0,0,284.72,169.87Zm0,0a4.39,4.39,0,1,0,4.41,4.39A4.39,4.39,0,0,0,284.72,169.87Zm0,0a4.39,4.39,0,1,0,4.41,4.39A4.39,4.39,0,0,0,284.72,169.87Zm0,0a4.39,4.39,0,1,0,4.41,4.39A4.39,4.39,0,0,0,284.72,169.87Zm0,0a4.39,4.39,0,1,0,4.41,4.39A4.39,4.39,0,0,0,284.72,169.87Zm0,0a4.39,4.39,0,1,0,4.41,4.39A4.39,4.39,0,0,0,284.72,169.87Zm0,0a4.39,4.39,0,1,0,4.41,4.39A4.39,4.39,0,0,0,284.72,169.87Zm0,0a4.39,4.39,0,1,0,4.41,4.39A4.39,4.39,0,0,0,284.72,169.87Zm0,0a4.39,4.39,0,1,0,4.41,4.39A4.39,4.39,0,0,0,284.72,169.87Zm0,0a4.39,4.39,0,1,0,4.41,4.39A4.39,4.39,0,0,0,284.72,169.87Z" transform="translate(-15.72 0.06)"/>
    <path class="cls-2" d="M403.82,195.07H316.93V108.18c0-.42,0-.83-.05-1.24a16.86,16.86,0,0,0-16.75-15.57H211.87a16.86,16.86,0,0,0-16.75,15.57c0,.41-.05.82-.05,1.24v86.89H108.18a16.86,16.86,0,0,0-16.81,16.8v88.26a16.29,16.29,0,0,0,.65,4.6,16.88,16.88,0,0,0,14,12,15.94,15.94,0,0,0,2.2.15h86.89v86.89a15.94,15.94,0,0,0,.15,2.2,16.88,16.88,0,0,0,12.05,14,16.29,16.29,0,0,0,4.6.65h88.26a16.29,16.29,0,0,0,4.6-.65,16.88,16.88,0,0,0,12-14,15.94,15.94,0,0,0,.15-2.2V316.93h86.89a15.94,15.94,0,0,0,2.2-.15,16.88,16.88,0,0,0,14-12,16.29,16.29,0,0,0,.65-4.6V211.87A16.86,16.86,0,0,0,403.82,195.07ZM238.27,106.94a15.81,15.81,0,1,1-2.88,9.1A15.79,15.79,0,0,1,238.27,106.94Zm12.93,28.64c8.43,0,15.9-2.76,20.48-7-2.21,7.79-10.53,13.59-20.48,13.59s-18.27-5.8-20.48-13.59C235.3,132.82,242.77,135.58,251.2,135.58Zm9.05,9.08-.4,15.82c-4.85.43-7.5.56-9.35.66a48.28,48.28,0,0,0-6.67.7l-.13,0-1.1.19-.45-17.4a24.67,24.67,0,0,0,18.1,0Zm-49.09,50.41C213.9,183.93,222,174,231,169.93a44.49,44.49,0,0,1,8.1-2.55c1.32-.29,2.55-.54,3.62-.73l1.88-.33c4.77-.82,4.83-.38,15.14-1.28l3.55-.33h.09c2.41-.23,6.3-.62,11.62-.79,1.36,0,3.2-.07,4.22-.07h.47c10.33.25,25.26,17.54,21.78,23.61-1,1.83-5.73,2-15.09,2.49-1.53.07-2.92.1-4.18.1a42.69,42.69,0,0,1-7.35-.53q-.63-.1-1.2-.24a17.25,17.25,0,0,1-1.72-.49l-.59-.22c-.19-.07-.37-.15-.54-.23a4.86,4.86,0,0,1-.51-.23c-.41-.2-.78-.41-1.14-.62a19.88,19.88,0,0,1-4.9-4.16l-.85-.21-.48-.1c-.94-.21-2-.4-3.15-.54l-.24,0-.24,0-.73-.07c-1-.1-2.13-.15-3.29-.15-.91,0-1.85,0-2.82.1a44.8,44.8,0,0,0-9.29,1.58,28.12,28.12,0,0,0-3.6,1.33,19.29,19.29,0,0,0-9,7.87,17.7,17.7,0,0,0-1,2,19.48,19.48,0,0,0-.32,14.74c.63,1.57,2.27,4.93,11.23,11l.5,19.64a74.39,74.39,0,0,1-7.87-4.32c-5.23-3.35-20.61-13.2-22.68-29.43A31.83,31.83,0,0,1,211.16,195.07Zm48-8.1-.21,8.1-.76,30-.12,5-.45,17.74-.13,5-.5,20c-4,2.5-7.89,4.44-11.43,6.22l-.82-31.94-.13-5-.48-19-.14-5.45-.57-22.64-.16-6.49a38.36,38.36,0,0,1,9.52-1.76c.83-.07,1.66-.09,2.47-.09A31.82,31.82,0,0,1,259.17,187Zm-36.71,130a16.85,16.85,0,0,1-1.28-5.15c-.51-5.95,2.33-10.6,3.67-12.73,3.53-5.6,8.31-8.42,17.26-13.08l2.16-1.12,1.42-.73c3.43-1.74,7.18-3.57,11.17-5.87,1.21-.7,2.43-1.45,3.69-2.26,1.72-1.08,3.48-2.29,5.26-3.64s4.75-3.68,5.46-7.52a11.48,11.48,0,0,0-1.6-7.57c-1.71-3.1-4.7-5.48-8.45-7.58l.44-17.73c.42.22.85.47,1.28.71,9.24,5.25,13.87,7.87,17,12.51,5.89,8.61,6.86,21.72,1.43,31.09-4.59,7.91-12.9,11.7-21.14,15.45l-.11.05c-1.27.58-2.48,1.08-3.68,1.57a74.81,74.81,0,0,0-10.42,4.76c-1.16.68-2.34,1.45-3.58,2.34-.67.49-1.36,1-2.07,1.6-5.55,4.51-6.46,7.22-6.43,9.23s1,3.75,2.9,5.67a36.23,36.23,0,0,0,4.51,3.71l1.64,1.15.29,11.5c-4.94-1.39-9.95-3.2-15-8.24A25.63,25.63,0,0,1,222.46,316.93Zm31,93.2a1.68,1.68,0,0,1-1.68,1.64h-1.26a1.68,1.68,0,0,1-1.68-1.64l-.68-26.68c1.75-.94,3.72-1.83,6-2.81Zm24.68-53.93c-1,6.22-5.56,10.6-7.28,12.06-2.74,2.34-4.28,2.44-11.54,5.38l-1.31.54-3.68,1.5c-2.36,1-4.43,1.86-6.3,2.76-1.28.61-2.47,1.22-3.59,1.87a33.67,33.67,0,0,0-4.66,3.24,36,36,0,0,0-9.05,11.54,20.36,20.36,0,0,1,.52-9.77c2-6.28,7.13-10.38,13-13.59,1.17-.65,2.38-1.26,3.59-1.84,2.26-1.09,4.55-2.1,6.74-3.09,1.26-.56,2.5-1.13,3.68-1.7C264,362.38,268.38,359.47,269,355c.61-4.73-3.35-8.78-7.11-12.61a28.43,28.43,0,0,0-2.92-2.6l.26-10.34a26.47,26.47,0,0,1,8,4.6C269,335.48,280,345,278.19,356.2Zm-22.47-32.89-.13,4.79-.24,9.33-.12,5.21-.49,19.12c-1.08.5-2.17,1-3.25,1.47s-2.47,1.11-3.74,1.7L247.08,339l-.12-4.75-.25-10.2-.15-5.4,0-1.76-.34-13.55a50,50,0,0,1,10.17-5.12l-.47,18.67Z" transform="translate(-15.72 0.06)"/>
  </g>
  <g id="Слой_2_копия3_" data-name="Слой 2 (копия3)">
    <path class="cls-3" d="M259.28,182.41h0l.24,0Z" transform="translate(-15.72 0.06)"/>
  </g>
</svg>
